<svg width="28" height="24" xmlns="http://www.w3.org/2000/svg"><g fill="none" fill-rule="evenodd"><path d="M3.333 2.667h21.334v2.666h2.666V2.667C27.333 1.2 26.133 0 24.667 0H3.333A2.675 2.675 0 0 0 .667 2.667v2.666h2.666V2.667zM8.067 14.44l-3.774-3.773 3.774-3.774-1.88-1.88L.52 10.667l5.653 5.653 1.894-1.88zm16.6 4.227H3.333V16H.667v2.667c0 1.466 1.2 2.666 2.666 2.666h5.334V24h10.666v-2.667h5.334c1.466 0 2.653-1.2 2.653-2.666V16h-2.653v2.667zm2.666-8.014L21.68 5 19.8 6.88l3.76 3.787-3.773 3.773 1.88 1.88 5.666-5.64v-.027z" fill="#FBBC04" fill-rule="nonzero"/><path d="M-2-4h32v32H-2z"/></g></svg>