<svg width="48" height="48" xmlns="http://www.w3.org/2000/svg">

 <g>
  <title>background</title>
  <rect fill="none" id="canvas_background" height="402" width="582" y="-1" x="-1"/>
 </g>
 <g>
  <title>Layer 1</title>
  <path id="svg_3" d="m23,48l-16,0c-2.757,0 -5,-2.243 -5,-5l0,-38c0,-0.553 0.448,-1 1,-1s1,0.447 1,1l0,38c0,1.654 1.346,3 3,3l16,0c0.552,0 1,0.447 1,1s-0.448,1 -1,1z"/>
  <path id="svg_5" d="m41,22.999c-0.552,0 -1,-0.447 -1,-1l0,-11.999l-33,0c-2.757,0 -5,-2.243 -5,-5s2.243,-5 5,-5l34,0c0.552,0 1,0.447 1,1s-0.448,1 -1,1l-34,0c-1.654,0 -3,1.346 -3,3s1.346,3 3,3l35,0l0,13.999c0,0.553 -0.448,1 -1,1z"/>
  <path id="svg_7" d="m34,48c-6.617,0 -12,-5.383 -12,-12s5.383,-12 12,-12s12,5.383 12,12s-5.383,12 -12,12zm0,-22c-5.514,0 -10,4.486 -10,10s4.486,10 10,10s10,-4.486 10,-10s-4.486,-10 -10,-10z"/>
  <path id="svg_9" d="m34,42c-0.552,0 -1,-0.447 -1,-1l0,-10c0,-0.553 0.448,-1 1,-1s1,0.447 1,1l0,10c0,0.553 -0.448,1 -1,1z"/>
  <path id="svg_11" d="m34,42.414l-4.707,-4.707c-0.391,-0.391 -0.391,-1.023 0,-1.414s1.023,-0.391 1.414,0l3.293,3.293l3.293,-3.293c0.391,-0.391 1.023,-0.391 1.414,0s0.391,1.023 0,1.414l-4.707,4.707z"/>
  <rect id="svg_13" y="4" x="7" width="33" height="2"/>
 </g>
</svg>