<svg width="28" height="28" xmlns="http://www.w3.org/2000/svg"><g fill="none" fill-rule="evenodd"><path d="M17.2 6.133c-.667-.266-1.467 0-1.733.8l-1.867 4.4c-1.333.134-2.267 1.334-2.267 2.667 0 1.467 1.2 2.667 2.667 2.667 1.467 0 2.667-1.2 2.667-2.667 0-.667-.267-1.2-.534-1.6L18 7.867c.133-.667-.133-1.467-.8-1.734zM7.333 10C6.533 10 6 10.533 6 11.333c0 .8.533 1.334 1.333 1.334.8 0 1.334-.534 1.334-1.334S8.133 10 7.333 10zm5.334-2.667c0-.8-.534-1.333-1.334-1.333S10 6.533 10 7.333c0 .8.533 1.334 1.333 1.334.8 0 1.334-.534 1.334-1.334zm8 2.667c-.8 0-1.334.533-1.334 1.333 0 .8.534 1.334 1.334 1.334S22 12.133 22 11.333 21.467 10 20.667 10zM14 .667C6.667.667.667 6.667.667 14s6 13.333 13.333 13.333 13.333-6 13.333-13.333S21.333.667 14 .667zM21.067 22C19.2 20.4 16.8 19.333 14 19.333S8.8 20.4 6.933 22c-2.133-2-3.6-4.8-3.6-8 0-5.867 4.8-10.667 10.667-10.667S24.667 8.133 24.667 14c0 3.2-1.467 6-3.6 8z" fill="#FBBC04" fill-rule="nonzero"/><path d="M-2-2h32v32H-2z"/></g></svg>